<mxfile host="app.diagrams.net" modified="2024-06-19T23:53:54.776Z" agent="Mozilla/5.0 (Windows NT 10.0; Win64; x64; rv:127.0) Gecko/20100101 Firefox/127.0" etag="i8fBUmIKHEwbrH_opv3P" version="24.5.5" type="google" pages="2">
  <diagram name="PÃ¡gina-1" id="igSg1s8eQORkb_bbUewI">
    <mxGraphModel grid="1" page="1" gridSize="10" guides="1" tooltips="1" connect="1" arrows="1" fold="1" pageScale="1" pageWidth="827" pageHeight="1169" math="0" shadow="0">
      <root>
        <mxCell id="0" />
        <mxCell id="1" parent="0" />
        <mxCell id="GNgo8S55mk4ITXR8YuoM-2" value="" style="rounded=0;whiteSpace=wrap;html=1;" vertex="1" parent="1">
          <mxGeometry x="39" y="40" width="761" height="760" as="geometry" />
        </mxCell>
        <mxCell id="GNgo8S55mk4ITXR8YuoM-3" value="" style="rounded=0;whiteSpace=wrap;html=1;" vertex="1" parent="1">
          <mxGeometry x="60" y="60" width="720" height="40" as="geometry" />
        </mxCell>
        <mxCell id="GNgo8S55mk4ITXR8YuoM-4" value="" style="rounded=0;whiteSpace=wrap;html=1;" vertex="1" parent="1">
          <mxGeometry x="64.5" y="240" width="725.5" height="110" as="geometry" />
        </mxCell>
        <mxCell id="GNgo8S55mk4ITXR8YuoM-6" value="" style="whiteSpace=wrap;html=1;aspect=fixed;" vertex="1" parent="1">
          <mxGeometry x="80" y="260" width="70" height="70" as="geometry" />
        </mxCell>
        <mxCell id="GNgo8S55mk4ITXR8YuoM-7" value="" style="whiteSpace=wrap;html=1;aspect=fixed;" vertex="1" parent="1">
          <mxGeometry x="170" y="260" width="70" height="70" as="geometry" />
        </mxCell>
        <mxCell id="GNgo8S55mk4ITXR8YuoM-8" value="" style="whiteSpace=wrap;html=1;aspect=fixed;" vertex="1" parent="1">
          <mxGeometry x="260" y="260" width="70" height="70" as="geometry" />
        </mxCell>
        <mxCell id="GNgo8S55mk4ITXR8YuoM-9" value="" style="whiteSpace=wrap;html=1;aspect=fixed;" vertex="1" parent="1">
          <mxGeometry x="350" y="260" width="70" height="70" as="geometry" />
        </mxCell>
        <mxCell id="GNgo8S55mk4ITXR8YuoM-10" value="" style="whiteSpace=wrap;html=1;aspect=fixed;" vertex="1" parent="1">
          <mxGeometry x="440" y="260" width="70" height="70" as="geometry" />
        </mxCell>
        <mxCell id="GNgo8S55mk4ITXR8YuoM-11" value="" style="whiteSpace=wrap;html=1;aspect=fixed;" vertex="1" parent="1">
          <mxGeometry x="530" y="260" width="70" height="70" as="geometry" />
        </mxCell>
        <mxCell id="GNgo8S55mk4ITXR8YuoM-12" value="" style="whiteSpace=wrap;html=1;aspect=fixed;" vertex="1" parent="1">
          <mxGeometry x="620" y="260" width="70" height="70" as="geometry" />
        </mxCell>
        <mxCell id="GNgo8S55mk4ITXR8YuoM-13" value="" style="whiteSpace=wrap;html=1;aspect=fixed;" vertex="1" parent="1">
          <mxGeometry x="710" y="260" width="70" height="70" as="geometry" />
        </mxCell>
        <mxCell id="TrshC3LRPrzzhQ7htqSY-2" value="" style="rounded=0;whiteSpace=wrap;html=1;" vertex="1" parent="1">
          <mxGeometry x="62.25" y="400" width="727.75" height="110" as="geometry" />
        </mxCell>
        <mxCell id="TrshC3LRPrzzhQ7htqSY-3" value="" style="rounded=0;whiteSpace=wrap;html=1;" vertex="1" parent="1">
          <mxGeometry x="64.5" y="560" width="725.5" height="110" as="geometry" />
        </mxCell>
        <mxCell id="TrshC3LRPrzzhQ7htqSY-5" value="" style="whiteSpace=wrap;html=1;aspect=fixed;" vertex="1" parent="1">
          <mxGeometry x="80" y="420" width="70" height="70" as="geometry" />
        </mxCell>
        <mxCell id="TrshC3LRPrzzhQ7htqSY-6" value="" style="whiteSpace=wrap;html=1;aspect=fixed;" vertex="1" parent="1">
          <mxGeometry x="170" y="420" width="70" height="70" as="geometry" />
        </mxCell>
        <mxCell id="TrshC3LRPrzzhQ7htqSY-7" value="" style="whiteSpace=wrap;html=1;aspect=fixed;" vertex="1" parent="1">
          <mxGeometry x="260" y="420" width="70" height="70" as="geometry" />
        </mxCell>
        <mxCell id="TrshC3LRPrzzhQ7htqSY-8" value="" style="whiteSpace=wrap;html=1;aspect=fixed;" vertex="1" parent="1">
          <mxGeometry x="350" y="420" width="70" height="70" as="geometry" />
        </mxCell>
        <mxCell id="TrshC3LRPrzzhQ7htqSY-10" value="" style="whiteSpace=wrap;html=1;aspect=fixed;" vertex="1" parent="1">
          <mxGeometry x="440" y="420" width="70" height="70" as="geometry" />
        </mxCell>
        <mxCell id="TrshC3LRPrzzhQ7htqSY-11" value="" style="whiteSpace=wrap;html=1;aspect=fixed;" vertex="1" parent="1">
          <mxGeometry x="530" y="420" width="70" height="70" as="geometry" />
        </mxCell>
        <mxCell id="TrshC3LRPrzzhQ7htqSY-12" value="" style="whiteSpace=wrap;html=1;aspect=fixed;" vertex="1" parent="1">
          <mxGeometry x="620" y="420" width="70" height="70" as="geometry" />
        </mxCell>
        <mxCell id="TrshC3LRPrzzhQ7htqSY-13" value="" style="whiteSpace=wrap;html=1;aspect=fixed;" vertex="1" parent="1">
          <mxGeometry x="710" y="420" width="70" height="70" as="geometry" />
        </mxCell>
        <mxCell id="TrshC3LRPrzzhQ7htqSY-14" value="" style="whiteSpace=wrap;html=1;aspect=fixed;" vertex="1" parent="1">
          <mxGeometry x="80" y="580" width="70" height="70" as="geometry" />
        </mxCell>
        <mxCell id="TrshC3LRPrzzhQ7htqSY-15" value="" style="whiteSpace=wrap;html=1;aspect=fixed;" vertex="1" parent="1">
          <mxGeometry x="170" y="580" width="70" height="70" as="geometry" />
        </mxCell>
        <mxCell id="TrshC3LRPrzzhQ7htqSY-16" value="" style="whiteSpace=wrap;html=1;aspect=fixed;" vertex="1" parent="1">
          <mxGeometry x="260" y="580" width="70" height="70" as="geometry" />
        </mxCell>
        <mxCell id="TrshC3LRPrzzhQ7htqSY-17" value="" style="whiteSpace=wrap;html=1;aspect=fixed;" vertex="1" parent="1">
          <mxGeometry x="350" y="580" width="70" height="70" as="geometry" />
        </mxCell>
        <mxCell id="TrshC3LRPrzzhQ7htqSY-18" value="" style="whiteSpace=wrap;html=1;aspect=fixed;" vertex="1" parent="1">
          <mxGeometry x="440" y="580" width="70" height="70" as="geometry" />
        </mxCell>
        <mxCell id="TrshC3LRPrzzhQ7htqSY-19" value="" style="whiteSpace=wrap;html=1;aspect=fixed;" vertex="1" parent="1">
          <mxGeometry x="530" y="580" width="70" height="70" as="geometry" />
        </mxCell>
        <mxCell id="TrshC3LRPrzzhQ7htqSY-20" value="" style="whiteSpace=wrap;html=1;aspect=fixed;" vertex="1" parent="1">
          <mxGeometry x="620" y="580" width="70" height="70" as="geometry" />
        </mxCell>
        <mxCell id="TrshC3LRPrzzhQ7htqSY-21" value="" style="whiteSpace=wrap;html=1;aspect=fixed;" vertex="1" parent="1">
          <mxGeometry x="710" y="580" width="70" height="70" as="geometry" />
        </mxCell>
        <mxCell id="TrshC3LRPrzzhQ7htqSY-22" value="&lt;font style=&quot;font-size: 18px;&quot;&gt;1re AÃ±o&lt;/font&gt;" style="text;html=1;align=center;verticalAlign=middle;whiteSpace=wrap;rounded=0;" vertex="1" parent="1">
          <mxGeometry x="62.25" y="190" width="120" height="50" as="geometry" />
        </mxCell>
        <mxCell id="TrshC3LRPrzzhQ7htqSY-23" value="&lt;font style=&quot;font-size: 18px;&quot;&gt;2do AÃ±o&lt;/font&gt;" style="text;html=1;align=center;verticalAlign=middle;whiteSpace=wrap;rounded=0;" vertex="1" parent="1">
          <mxGeometry x="80" y="350" width="100" height="50" as="geometry" />
        </mxCell>
        <mxCell id="TrshC3LRPrzzhQ7htqSY-24" value="&lt;font style=&quot;font-size: 18px;&quot;&gt;3re AÃ±o&lt;/font&gt;" style="text;html=1;align=center;verticalAlign=middle;whiteSpace=wrap;rounded=0;" vertex="1" parent="1">
          <mxGeometry x="91.11999999999999" y="520" width="77.75" height="40" as="geometry" />
        </mxCell>
        <mxCell id="TrshC3LRPrzzhQ7htqSY-25" value="Materias" style="text;html=1;align=center;verticalAlign=middle;whiteSpace=wrap;rounded=0;" vertex="1" parent="1">
          <mxGeometry x="83.38" y="280" width="60" height="30" as="geometry" />
        </mxCell>
        <mxCell id="TrshC3LRPrzzhQ7htqSY-26" value="Materias" style="text;html=1;align=center;verticalAlign=middle;whiteSpace=wrap;rounded=0;" vertex="1" parent="1">
          <mxGeometry x="175" y="280" width="60" height="30" as="geometry" />
        </mxCell>
        <mxCell id="TrshC3LRPrzzhQ7htqSY-27" value="Materias" style="text;html=1;align=center;verticalAlign=middle;whiteSpace=wrap;rounded=0;" vertex="1" parent="1">
          <mxGeometry x="265" y="280" width="60" height="30" as="geometry" />
        </mxCell>
        <mxCell id="ACCmk23lGkERLCAL5dX8-2" value="Materias" style="text;html=1;align=center;verticalAlign=middle;whiteSpace=wrap;rounded=0;" vertex="1" parent="1">
          <mxGeometry x="353.5" y="280" width="60" height="30" as="geometry" />
        </mxCell>
        <mxCell id="ACCmk23lGkERLCAL5dX8-4" value="Materias" style="text;html=1;align=center;verticalAlign=middle;whiteSpace=wrap;rounded=0;" vertex="1" parent="1">
          <mxGeometry x="445" y="280" width="60" height="30" as="geometry" />
        </mxCell>
        <mxCell id="ACCmk23lGkERLCAL5dX8-5" value="Materias" style="text;html=1;align=center;verticalAlign=middle;whiteSpace=wrap;rounded=0;" vertex="1" parent="1">
          <mxGeometry x="535" y="280" width="60" height="30" as="geometry" />
        </mxCell>
        <mxCell id="ACCmk23lGkERLCAL5dX8-6" value="" style="rounded=0;whiteSpace=wrap;html=1;" vertex="1" parent="1">
          <mxGeometry x="64.5" y="120" width="715.5" height="60" as="geometry" />
        </mxCell>
        <mxCell id="ACCmk23lGkERLCAL5dX8-7" value="Materias" style="text;html=1;align=center;verticalAlign=middle;whiteSpace=wrap;rounded=0;" vertex="1" parent="1">
          <mxGeometry x="625" y="280" width="60" height="30" as="geometry" />
        </mxCell>
        <mxCell id="ACCmk23lGkERLCAL5dX8-8" value="Materias" style="text;html=1;align=center;verticalAlign=middle;whiteSpace=wrap;rounded=0;" vertex="1" parent="1">
          <mxGeometry x="715" y="280" width="60" height="30" as="geometry" />
        </mxCell>
        <mxCell id="ACCmk23lGkERLCAL5dX8-9" value="&lt;font style=&quot;font-size: 24px;&quot;&gt;Banner&lt;/font&gt;" style="text;html=1;align=center;verticalAlign=middle;whiteSpace=wrap;rounded=0;" vertex="1" parent="1">
          <mxGeometry x="280" y="130" width="250" height="40" as="geometry" />
        </mxCell>
        <mxCell id="ACCmk23lGkERLCAL5dX8-10" value="&lt;font style=&quot;font-size: 24px;&quot;&gt;Header&lt;/font&gt;" style="text;html=1;align=center;verticalAlign=middle;whiteSpace=wrap;rounded=0;" vertex="1" parent="1">
          <mxGeometry x="370" y="65" width="60" height="30" as="geometry" />
        </mxCell>
        <mxCell id="ACCmk23lGkERLCAL5dX8-12" value="" style="rounded=0;whiteSpace=wrap;html=1;" vertex="1" parent="1">
          <mxGeometry x="39" y="720" width="761" height="80" as="geometry" />
        </mxCell>
        <mxCell id="ACCmk23lGkERLCAL5dX8-13" value="&lt;font style=&quot;font-size: 36px;&quot;&gt;footer&lt;/font&gt;" style="text;html=1;align=center;verticalAlign=middle;whiteSpace=wrap;rounded=0;" vertex="1" parent="1">
          <mxGeometry x="240" y="720" width="320" height="80" as="geometry" />
        </mxCell>
      </root>
    </mxGraphModel>
  </diagram>
  <diagram id="MX1opFnVhzMRX0uoygo0" name="PÃ¡gina-2">
    <mxGraphModel grid="1" page="1" gridSize="10" guides="1" tooltips="1" connect="1" arrows="1" fold="1" pageScale="1" pageWidth="827" pageHeight="1169" math="0" shadow="0">
      <root>
        <mxCell id="0" />
        <mxCell id="1" parent="0" />
        <mxCell id="5PrlJCgS-AZTygo1XCYj-1" value="" style="whiteSpace=wrap;html=1;aspect=fixed;" vertex="1" parent="1">
          <mxGeometry x="40" y="40" width="760" height="760" as="geometry" />
        </mxCell>
        <mxCell id="5PrlJCgS-AZTygo1XCYj-2" value="" style="rounded=0;whiteSpace=wrap;html=1;" vertex="1" parent="1">
          <mxGeometry x="60" y="60" width="710" height="60" as="geometry" />
        </mxCell>
        <mxCell id="5PrlJCgS-AZTygo1XCYj-3" value="" style="rounded=0;whiteSpace=wrap;html=1;" vertex="1" parent="1">
          <mxGeometry x="60" y="120" width="710" height="30" as="geometry" />
        </mxCell>
        <mxCell id="5PrlJCgS-AZTygo1XCYj-4" value="" style="whiteSpace=wrap;html=1;aspect=fixed;" vertex="1" parent="1">
          <mxGeometry x="70" y="70" width="40" height="40" as="geometry" />
        </mxCell>
        <mxCell id="5PrlJCgS-AZTygo1XCYj-5" value="logo" style="text;html=1;align=center;verticalAlign=middle;whiteSpace=wrap;rounded=0;" vertex="1" parent="1">
          <mxGeometry x="60" y="75" width="60" height="30" as="geometry" />
        </mxCell>
        <mxCell id="5PrlJCgS-AZTygo1XCYj-7" value="" style="rounded=0;whiteSpace=wrap;html=1;" vertex="1" parent="1">
          <mxGeometry x="680" y="65" width="90" height="40" as="geometry" />
        </mxCell>
        <mxCell id="5PrlJCgS-AZTygo1XCYj-8" value="" style="rounded=0;whiteSpace=wrap;html=1;" vertex="1" parent="1">
          <mxGeometry x="590" y="65" width="90" height="40" as="geometry" />
        </mxCell>
        <mxCell id="5PrlJCgS-AZTygo1XCYj-9" value="" style="rounded=0;whiteSpace=wrap;html=1;" vertex="1" parent="1">
          <mxGeometry x="500" y="65" width="90" height="40" as="geometry" />
        </mxCell>
        <mxCell id="5PrlJCgS-AZTygo1XCYj-10" value="Home" style="text;html=1;align=center;verticalAlign=middle;whiteSpace=wrap;rounded=0;" vertex="1" parent="1">
          <mxGeometry x="515" y="70" width="60" height="30" as="geometry" />
        </mxCell>
        <mxCell id="5PrlJCgS-AZTygo1XCYj-12" value="Perfil" style="text;html=1;align=center;verticalAlign=middle;whiteSpace=wrap;rounded=0;" vertex="1" parent="1">
          <mxGeometry x="605" y="70" width="60" height="30" as="geometry" />
        </mxCell>
        <mxCell id="5PrlJCgS-AZTygo1XCYj-13" value="About" style="text;html=1;align=center;verticalAlign=middle;whiteSpace=wrap;rounded=0;" vertex="1" parent="1">
          <mxGeometry x="695" y="70" width="60" height="30" as="geometry" />
        </mxCell>
        <mxCell id="5PrlJCgS-AZTygo1XCYj-14" value="" style="rounded=0;whiteSpace=wrap;html=1;" vertex="1" parent="1">
          <mxGeometry x="60" y="200" width="710" height="220" as="geometry" />
        </mxCell>
        <mxCell id="5PrlJCgS-AZTygo1XCYj-15" value="" style="rounded=0;whiteSpace=wrap;html=1;" vertex="1" parent="1">
          <mxGeometry x="60" y="420" width="710" height="220" as="geometry" />
        </mxCell>
        <mxCell id="5PrlJCgS-AZTygo1XCYj-16" value="" style="whiteSpace=wrap;html=1;aspect=fixed;" vertex="1" parent="1">
          <mxGeometry x="80" y="474.5" width="110" height="110" as="geometry" />
        </mxCell>
        <mxCell id="5PrlJCgS-AZTygo1XCYj-17" value="" style="whiteSpace=wrap;html=1;aspect=fixed;" vertex="1" parent="1">
          <mxGeometry x="220" y="475" width="110" height="110" as="geometry" />
        </mxCell>
        <mxCell id="5PrlJCgS-AZTygo1XCYj-18" value="" style="whiteSpace=wrap;html=1;aspect=fixed;" vertex="1" parent="1">
          <mxGeometry x="360" y="475" width="110" height="110" as="geometry" />
        </mxCell>
        <mxCell id="5PrlJCgS-AZTygo1XCYj-21" value="" style="whiteSpace=wrap;html=1;aspect=fixed;" vertex="1" parent="1">
          <mxGeometry x="500" y="475" width="110" height="110" as="geometry" />
        </mxCell>
        <mxCell id="5PrlJCgS-AZTygo1XCYj-22" value="" style="whiteSpace=wrap;html=1;aspect=fixed;" vertex="1" parent="1">
          <mxGeometry x="640" y="475" width="110" height="110" as="geometry" />
        </mxCell>
        <mxCell id="5PrlJCgS-AZTygo1XCYj-24" value="&lt;font style=&quot;font-size: 18px;&quot;&gt;AÃ±o X&lt;br&gt;&lt;/font&gt;" style="text;html=1;align=center;verticalAlign=middle;whiteSpace=wrap;rounded=0;" vertex="1" parent="1">
          <mxGeometry x="80" y="430" width="60" height="30" as="geometry" />
        </mxCell>
        <mxCell id="5PrlJCgS-AZTygo1XCYj-25" value="h1 &quot;Perfil&quot;" style="text;html=1;align=center;verticalAlign=middle;whiteSpace=wrap;rounded=0;" vertex="1" parent="1">
          <mxGeometry x="330" y="220" width="110" height="50" as="geometry" />
        </mxCell>
        <mxCell id="5PrlJCgS-AZTygo1XCYj-26" value="Parrafo &quot;Descripcion del&amp;nbsp; perfil&quot;" style="text;html=1;align=center;verticalAlign=middle;whiteSpace=wrap;rounded=0;" vertex="1" parent="1">
          <mxGeometry x="354" y="280" width="60" height="30" as="geometry" />
        </mxCell>
        <mxCell id="5PrlJCgS-AZTygo1XCYj-27" value="Lista &quot;responsabilidades del perfil" style="text;html=1;align=center;verticalAlign=middle;whiteSpace=wrap;rounded=0;" vertex="1" parent="1">
          <mxGeometry x="330" y="330" width="110" height="50" as="geometry" />
        </mxCell>
        <mxCell id="5PrlJCgS-AZTygo1XCYj-28" value="Materias" style="text;html=1;align=center;verticalAlign=middle;whiteSpace=wrap;rounded=0;" vertex="1" parent="1">
          <mxGeometry x="80" y="499.5" width="105" height="60" as="geometry" />
        </mxCell>
        <mxCell id="5PrlJCgS-AZTygo1XCYj-29" value="Materias" style="text;html=1;align=center;verticalAlign=middle;whiteSpace=wrap;rounded=0;" vertex="1" parent="1">
          <mxGeometry x="220" y="500" width="105" height="60" as="geometry" />
        </mxCell>
        <mxCell id="5PrlJCgS-AZTygo1XCYj-30" value="Materias" style="text;html=1;align=center;verticalAlign=middle;whiteSpace=wrap;rounded=0;" vertex="1" parent="1">
          <mxGeometry x="360" y="499.5" width="105" height="60" as="geometry" />
        </mxCell>
        <mxCell id="5PrlJCgS-AZTygo1XCYj-31" value="Materias" style="text;html=1;align=center;verticalAlign=middle;whiteSpace=wrap;rounded=0;" vertex="1" parent="1">
          <mxGeometry x="500" y="500" width="105" height="60" as="geometry" />
        </mxCell>
        <mxCell id="5PrlJCgS-AZTygo1XCYj-32" value="Materias" style="text;html=1;align=center;verticalAlign=middle;whiteSpace=wrap;rounded=0;" vertex="1" parent="1">
          <mxGeometry x="642.5" y="500" width="105" height="60" as="geometry" />
        </mxCell>
        <mxCell id="5PrlJCgS-AZTygo1XCYj-34" value="" style="rounded=0;whiteSpace=wrap;html=1;" vertex="1" parent="1">
          <mxGeometry x="60" y="660" width="710" height="60" as="geometry" />
        </mxCell>
        <mxCell id="5PrlJCgS-AZTygo1XCYj-35" value="&lt;font style=&quot;font-size: 18px;&quot;&gt;Complementarias&lt;/font&gt;" style="text;html=1;align=center;verticalAlign=middle;whiteSpace=wrap;rounded=0;" vertex="1" parent="1">
          <mxGeometry x="280" y="675" width="210" height="30" as="geometry" />
        </mxCell>
        <mxCell id="5PrlJCgS-AZTygo1XCYj-37" value="" style="rounded=0;whiteSpace=wrap;html=1;" vertex="1" parent="1">
          <mxGeometry x="40" y="740" width="760" height="60" as="geometry" />
        </mxCell>
        <mxCell id="5PrlJCgS-AZTygo1XCYj-38" value="&lt;font style=&quot;font-size: 18px;&quot;&gt;footer&lt;/font&gt;" style="text;html=1;align=center;verticalAlign=middle;whiteSpace=wrap;rounded=0;" vertex="1" parent="1">
          <mxGeometry x="354" y="755" width="60" height="30" as="geometry" />
        </mxCell>
      </root>
    </mxGraphModel>
  </diagram>
</mxfile>
